<svg width="20" height="20" viewBox="0 0 20 20" fill="none" xmlns="http://www.w3.org/2000/svg">
<path d="M9.99517 20C15.4761 20 20 15.4739 20 10C20 4.52611 15.4664 0 9.9855 0C4.51426 0 0 4.52611 0 10C0 15.4739 4.52392 20 9.99517 20ZM9.99517 18.0077C5.55824 18.0077 2.01063 14.4391 2.01063 10C2.01063 5.56093 5.55824 2.00193 9.9855 2.00193C14.4224 2.00193 17.9894 5.56093 17.999 10C18.0087 14.4391 14.4321 18.0077 9.99517 18.0077ZM9.9855 15.4352C10.2368 15.4352 10.4302 15.2515 10.4302 14.9903V14.3424C11.9961 14.1973 13.1754 13.2979 13.1754 11.8279C13.1754 10.5126 12.3248 9.73888 10.6428 9.4294L10.4302 9.38105V6.98259C11.0488 7.08897 11.4741 7.45648 11.6578 8.02708C11.8028 8.34623 12.0058 8.52998 12.3538 8.52998C12.7405 8.52998 13.0111 8.26886 13.0111 7.90135C13.0111 7.7853 12.9821 7.67892 12.9628 7.56286C12.7018 6.56673 11.7255 5.85106 10.4302 5.71567V5.0677C10.4302 4.80658 10.2368 4.62282 9.9855 4.62282C9.73417 4.62282 9.55051 4.80658 9.55051 5.0677V5.71567C8.0232 5.87041 6.94055 6.79884 6.94055 8.14313C6.94055 9.40039 7.78154 10.1354 9.38618 10.5029L9.55051 10.5416V13.0948C8.76752 12.9787 8.31319 12.5629 8.15853 11.9923C8.0232 11.6441 7.80087 11.47 7.47221 11.47C7.06622 11.47 6.80522 11.7408 6.80522 12.1277C6.80522 12.234 6.83422 12.3404 6.86322 12.4662C7.14355 13.4913 8.1682 14.207 9.55051 14.3327V14.9903C9.55051 15.2611 9.73417 15.4352 9.9855 15.4352ZM9.55051 9.15861L9.48284 9.13927C8.70952 8.91683 8.35186 8.57834 8.35186 8.05609C8.35186 7.52418 8.80619 7.08897 9.55051 6.97292V9.15861ZM10.4302 10.764L10.6138 10.8027C11.4548 11.0348 11.7545 11.383 11.7545 11.9342C11.7545 12.5435 11.3098 12.9884 10.4302 13.0948V10.764Z" fill="#477EFF"/>
</svg>
